<svg width="208" height="60" viewBox="0 0 208 60" fill="none" xmlns="http://www.w3.org/2000/svg">
<g clip-path="url(#clip0_23_11)">
<path d="M61.9954 12.0612C62.0544 12.9012 61.4006 13.6322 60.5697 13.7684L54.7215 14.7809C53.3458 15.0215 52.2561 16.0704 51.9564 17.428L51.5251 19.3986C51.5341 19.6664 51.4706 19.9116 51.3616 20.1386L49.2685 29.7281L48.4421 33.5058L48.2741 34.2867L47.5295 37.7012L46.4761 42.5186C46.2854 43.3858 46.6123 44.2667 47.2752 44.866C48.7554 46.2191 49.5273 48.2713 49.1504 50.3645L48.9552 51.4769C48.7009 52.9072 47.9563 54.1376 46.9029 55.0185C46.131 55.6768 44.9323 55.4316 44.4737 54.519L44.4192 54.41C44.0832 53.7608 44.2921 52.998 44.8415 52.5212C45.3183 52.1171 45.6497 51.5541 45.7632 50.9048L45.9585 49.7969C46.2127 48.3667 45.3092 46.9773 43.9016 46.6186L32.8184 44.6935L26.9566 43.6764L22.0756 42.8319L17.5806 42.0509C16.0323 41.783 14.6338 41.0475 13.5486 39.985C12.7223 39.1859 12.0775 38.2006 11.678 37.0836L10.6019 34.0642L8.15004 27.2172C8.08193 27.0356 8.05469 26.8449 8.05469 26.6633C8.05469 25.8006 8.74484 25.0469 9.67109 25.0469C10.3522 25.0469 10.9651 25.4737 11.1967 26.1184L14.6293 35.6216C14.7428 35.944 14.8881 36.2527 15.0561 36.5388C15.8234 37.792 17.1038 38.6774 18.5749 38.9316L23.188 39.7353L30.9295 41.0793L34.2032 41.6468L38.7891 42.4369L40.8323 42.791C42.0537 43.0044 43.2251 42.2144 43.4884 41.0066L43.7019 40.0304L44.3875 36.8975L44.6417 35.726L45.4091 32.2299L48.7917 16.7378C49.3729 14.0726 51.4842 12.0521 54.1722 11.5935L60.102 10.5674C61.0464 10.3994 61.9273 11.085 61.9954 12.0612Z" fill="#1E3934"/>
<g style="mix-blend-mode:multiply">
<path d="M15.0606 36.5388C13.4669 35.9031 11.9686 35.0632 10.6019 34.0643L8.15004 27.2172C8.08193 27.0356 8.05469 26.8495 8.05469 26.6633C8.05469 25.8006 8.74484 25.0424 9.67563 25.0424C10.3567 25.0424 10.9697 25.4737 11.1967 26.1139L14.6293 35.6171C14.7428 35.9395 14.8881 36.2482 15.0606 36.5343V36.5388Z" fill="#C24700"/>
</g>
<path d="M24.1234 56.4442H33.8309C34.5528 56.4442 35.1612 55.9538 35.3746 55.2682C35.3746 55.2546 35.3837 55.2455 35.3837 55.2319C35.7061 54.2239 34.8979 53.2023 33.8399 53.2023H24.1143C23.0563 53.2023 22.2481 54.2239 22.5705 55.2319C22.5705 55.2455 22.5796 55.2546 22.5796 55.2682C22.793 55.9584 23.4014 56.4442 24.1234 56.4442Z" fill="#1E3934"/>
<path d="M18.0301 54.233C17.9802 54.233 17.9303 54.2194 17.8803 54.2194C16.4909 54.2194 15.3604 55.3499 15.3604 56.7393C15.3604 58.1287 16.4909 59.2593 17.8803 59.2593C19.2697 59.2593 20.4003 58.1287 20.4003 56.7393C20.4003 56.6621 20.3821 56.5849 20.3776 56.5078C20.264 55.2773 19.2742 54.3102 18.0347 54.233H18.0301Z" fill="#1E3934"/>
<path d="M40.0739 54.2148C38.7617 54.2148 37.6947 55.2228 37.5767 56.5032C37.5676 56.5804 37.554 56.653 37.554 56.7347C37.554 58.1241 38.6845 59.2547 40.0739 59.2547C41.4633 59.2547 42.5939 58.1241 42.5939 56.7347C42.5939 56.653 42.5757 56.5758 42.5712 56.4986C42.4486 55.2228 41.3861 54.2193 40.0785 54.2193L40.0739 54.2148Z" fill="#1E3934"/>
<path d="M23.188 39.7354L30.9295 41.0793C30.1394 41.2882 29.3448 41.488 28.5457 41.6741C26.3164 42.1917 24.1506 42.5731 22.0756 42.8319L17.5805 42.051C16.0322 41.7831 14.6338 41.0475 13.5486 39.9851C16.4091 40.2711 19.6646 40.1985 23.188 39.7354Z" fill="white"/>
<path d="M49.2686 29.7281L48.4422 33.5058C47.2526 34.2732 45.9813 35.0178 44.6418 35.7261L45.4092 32.2299C46.7849 31.4308 48.079 30.5954 49.2686 29.7281Z" fill="white"/>
<g style="mix-blend-mode:multiply">
<path d="M38.7936 42.4414C36.8821 43.2769 34.8797 44.0351 32.8184 44.698L26.9612 43.681C28.3687 43.3904 29.8126 43.0271 31.2837 42.5958C32.2735 42.3052 33.2497 41.9874 34.2078 41.6514L38.7936 42.4459V42.4414Z" fill="#C24700"/>
</g>
<g style="mix-blend-mode:multiply">
<path d="M48.2788 34.2867L47.5342 37.7012C46.34 38.5094 45.0596 39.2858 43.7065 40.0304L44.3922 36.893C45.7861 36.0621 47.0846 35.1903 48.2788 34.2867Z" fill="#C24700"/>
</g>
<path d="M32.5441 34.3794C41.3316 29.5744 44.5601 18.5554 39.755 9.76785C34.95 0.98031 23.931 -2.24813 15.1434 2.55693C6.35589 7.36199 3.12745 18.381 7.93251 27.1685C12.7376 35.9561 23.7566 39.1845 32.5441 34.3794Z" fill="#A1D62E"/>
<path d="M34.9752 19.4486L16.2821 20.4248C15.5647 20.4611 15.0562 21.1739 15.2878 21.8505C16.5863 25.6463 20.2005 27.9483 24.8863 27.7031C27.2837 27.576 29.345 26.8359 31.0068 25.4601C31.8287 24.7791 33.0501 24.8789 33.7856 25.6554C34.5984 26.5135 34.5302 27.8711 33.6449 28.6521C31.4473 30.5863 28.4687 31.7033 24.959 31.8894C16.4547 32.3344 10.4885 27.013 10.0799 19.1534C9.67122 11.3438 14.9972 5.43215 22.607 5.03259C30.2168 4.63303 35.9242 9.82278 36.3464 17.9275C36.3873 18.7221 35.7743 19.4032 34.9797 19.444L34.9752 19.4486ZM16.0733 16.9967L30.3439 16.2521C31.0477 16.2157 31.5608 15.5256 31.3474 14.8536C30.1941 11.1985 26.9568 8.85112 22.8159 9.06452C18.7158 9.27792 15.7009 11.9205 14.9336 15.7118C14.7929 16.4019 15.374 17.0376 16.0778 16.9967H16.0733Z" fill="white"/>
<path d="M57.6637 18.5313C57.7182 18.9536 57.7318 19.394 57.7046 19.8481C57.1733 27.6259 44.1604 36.843 28.6365 40.4391C13.1127 44.0351 0.957878 40.6434 1.48911 32.8656C1.5209 32.4115 1.59808 31.9484 1.71159 31.4853C0.712693 33.0517 0.117892 34.6091 0.0180023 36.112C-0.513232 43.8898 12.2091 47.1453 28.4322 43.3904C44.6553 39.6354 58.2403 30.282 58.7716 22.5042C58.876 21.0059 58.4764 19.6755 57.6637 18.5268V18.5313Z" fill="#A1D62E"/>
</g>
<path d="M78.65 41.7939V18.0339H83.732V41.7939H78.65ZM81.026 41.7939V37.8999H96.338V41.7939H81.026ZM81.026 31.5639V27.7359H95.183V31.5639H81.026ZM81.026 21.9279V18.0339H95.942V21.9279H81.026ZM97.643 34.7979V30.8379H109.721V34.7979H97.643ZM113.527 41.7939V18.0339H121.447L128.047 40.9359H125.176L131.776 18.0339H139.729V41.7939H134.713V19.4529H135.571L129.136 41.7939H123.889L117.52 19.6509H118.345V41.7939H113.527ZM154.102 41.7939C153.97 41.3099 153.871 40.7929 153.805 40.2429C153.761 39.6929 153.739 39.0549 153.739 38.3289H153.607V30.3759C153.607 29.6939 153.376 29.1659 152.914 28.7919C152.474 28.3959 151.814 28.1979 150.934 28.1979C150.098 28.1979 149.427 28.3409 148.921 28.6269C148.437 28.9129 148.118 29.3309 147.964 29.8809H143.245C143.465 28.3629 144.246 27.1089 145.588 26.1189C146.93 25.1289 148.767 24.6339 151.099 24.6339C153.519 24.6339 155.367 25.1729 156.643 26.2509C157.919 27.3289 158.557 28.8799 158.557 30.9039V38.3289C158.557 38.8789 158.59 39.4399 158.656 40.0119C158.744 40.5619 158.876 41.1559 159.052 41.7939H154.102ZM148.228 42.1239C146.556 42.1239 145.225 41.7059 144.235 40.8699C143.245 40.0119 142.75 38.8789 142.75 37.4709C142.75 35.9089 143.333 34.6549 144.499 33.7089C145.687 32.7409 147.337 32.1139 149.449 31.8279L154.366 31.1349V34.0059L150.274 34.6329C149.394 34.7649 148.745 35.0069 148.327 35.3589C147.909 35.7109 147.7 36.1949 147.7 36.8109C147.7 37.3609 147.898 37.7789 148.294 38.0649C148.69 38.3509 149.218 38.4939 149.878 38.4939C150.912 38.4939 151.792 38.2189 152.518 37.6689C153.244 37.0969 153.607 36.4369 153.607 35.6889L154.069 38.3289C153.585 39.5829 152.848 40.5289 151.858 41.1669C150.868 41.8049 149.658 42.1239 148.228 42.1239ZM162.527 41.7939V24.9639H167.378V28.9239H167.477V41.7939H162.527ZM167.477 33.0159L167.048 29.0229C167.444 27.5929 168.093 26.5039 168.995 25.7559C169.897 25.0079 171.019 24.6339 172.361 24.6339C172.779 24.6339 173.087 24.6779 173.285 24.7659V29.3859C173.175 29.3419 173.021 29.3199 172.823 29.3199C172.625 29.2979 172.383 29.2869 172.097 29.2869C170.513 29.2869 169.347 29.5729 168.599 30.1449C167.851 30.6949 167.477 31.6519 167.477 33.0159ZM184.245 42.1569C182.089 42.1569 180.483 41.6399 179.427 40.6059C178.393 39.5499 177.876 37.9549 177.876 35.8209V21.2019L182.826 19.3539V35.9859C182.826 36.7339 183.035 37.2949 183.453 37.6689C183.871 38.0429 184.52 38.2299 185.4 38.2299C185.73 38.2299 186.038 38.1969 186.324 38.1309C186.61 38.0649 186.896 37.9879 187.182 37.8999V41.6619C186.896 41.8159 186.489 41.9369 185.961 42.0249C185.455 42.1129 184.883 42.1569 184.245 42.1569ZM174.741 28.7259V24.9639H187.182V28.7259H174.741ZM196.918 42.1239C194.454 42.1239 192.496 41.6289 191.044 40.6389C189.592 39.6489 188.8 38.2849 188.668 36.5469H193.09C193.2 37.2949 193.574 37.8669 194.212 38.2629C194.872 38.6369 195.774 38.8239 196.918 38.8239C197.952 38.8239 198.7 38.6809 199.162 38.3949C199.646 38.0869 199.888 37.6579 199.888 37.1079C199.888 36.6899 199.745 36.3709 199.459 36.1509C199.195 35.9089 198.7 35.7109 197.974 35.5569L195.268 34.9959C193.266 34.5779 191.792 33.9509 190.846 33.1149C189.9 32.2569 189.427 31.1569 189.427 29.8149C189.427 28.1869 190.054 26.9219 191.308 26.0199C192.562 25.0959 194.311 24.6339 196.555 24.6339C198.777 24.6339 200.548 25.0849 201.868 25.9869C203.188 26.8669 203.914 28.0989 204.046 29.6829H199.624C199.536 29.1109 199.228 28.6819 198.7 28.3959C198.172 28.0879 197.424 27.9339 196.456 27.9339C195.576 27.9339 194.916 28.0659 194.476 28.3299C194.058 28.5719 193.849 28.9239 193.849 29.3859C193.849 29.7819 194.025 30.1009 194.377 30.3429C194.729 30.5629 195.312 30.7609 196.126 30.9369L199.162 31.5639C200.856 31.9159 202.132 32.5759 202.99 33.5439C203.87 34.4899 204.31 35.6119 204.31 36.9099C204.31 38.5599 203.661 39.8469 202.363 40.7709C201.087 41.6729 199.272 42.1239 196.918 42.1239Z" fill="#1F1F1F"/>
<defs>
<clipPath id="clip0_23_11">
<rect width="62" height="58.9216" fill="white" transform="translate(0 0.333191)"/>
</clipPath>
</defs>
</svg>
